{"title":"Star Trek Into Darkness(2013) 720p(Hindi-English)By Lokioddin(Pi","uid":9125349,"size":1316604812,"categoryP":"video","categoryS":"hd___movies","magnet":"?xt=urn:btih:20fe9d993a7be609459c95e6d8614057bedc0ad5&amp;dn=Star+Trek+Into+Darkness%282013%29+720p%28Hindi-English%29By+Lokioddin%28Pi&amp;tr=udp%3A%2F%2Ftracker.openbittorrent.com%3A80&amp;tr=udp%3A%2F%2Fopen.demonii.com%3A1337&amp;tr=udp%3A%2F%2Ftracker.coppersurfer.tk%3A6969&amp;tr=udp%3A%2F%2Fexodus.desync.com%3A6969","seeders":2,"leechers":0,"uploader":"lokioddin","files":-1,"time":1383213103,"description":"Star Trek Into Darkness(2013)720p BrRip Dual Audio(Hindi-English)By Lokioddin(PimpRG)\n\n\nFile Info:\n\nFormat                                   : Matroska\nFormat version                           : Version 2\nFile size                                : 1.21 GiB\nDuration                                 : 2h 12mn\nOverall bit rate mode                    : Variable\nOverall bit rate                         : 1 313 Kbps\nMovie name                               : Star Trek Into Darkness (2013) 720p BDRip Dual Audio(Hindi-English)By Lokioddin(PimpRG)\nEncoded date                             : UTC 2013-10-17 08:00:55\n\n\nVideo Info:\n\nDuration                                 : 2h 12mn\nBit rate mode                            : Variable\nBit rate                                 : 865 Kbps\nMaximum bit rate                         : 25.0 Mbps\nWidth                                    : 1 280 pixels\nHeight                                   : 534 pixels\nDisplay aspect ratio                     : 2.40:1\nFrame rate mode                          : Constant\nFrame rate                               : 23.976 fps\nColor space                              : YUV\nChroma subsampling                       : 4:2:0\nBit depth                                : 8 bits\nScan type                                : Progressive\nBits/(Pixel*Frame)                       : 0.053\nStream size                              : 792 MiB (64%)\nTitle                                    : Lokioddin\n\n\nAudio Info:\n\n\nAudio #1\n\nDuration                                 : 2h 12mn\nBit rate mode                            : Constant\nBit rate                                 : 224 Kbps\nChannel(s)                               : 6 channels\nChannel positions                        : Front: L C R, Side: L R, LFE\nSampling rate                            : 48.0 KHz\nBit depth                                : 16 bits\nCompression mode                         : Lossy\nStream size                              : 212 MiB (17%)\nTitle                                    : By-Lokioddin\nLanguage                                 : Hindi\n\n\nAudio #2\n\nDuration                                 : 2h 12mn\nBit rate mode                            : Constant\nBit rate                                 : 224 Kbps\nChannel(s)                               : 2 channels\nChannel positions                        : Front: L R\nSampling rate                            : 48.0 KHz\nBit depth                                : 16 bits\nCompression mode                         : Lossy\nStream size                              : 212 MiB (17%)\nTitle                                    : By-Lokioddin\nLanguage                                 : English\n\nScreen shots\n &lt;a href=&quot;\nhttp://i1.someimage.com/0ljZbkd.png&quot; rel=&quot;nofollow&quot; target=&quot;_NEW&quot;&gt;\nhttp://i1.someimage.com/0ljZbkd.png&lt;/a&gt;\n &lt;a href=&quot;\nhttp://i1.someimage.com/IkfbWcS.png&quot; rel=&quot;nofollow&quot; target=&quot;_NEW&quot;&gt;\nhttp://i1.someimage.com/IkfbWcS.png&lt;/a&gt;\n &lt;a href=&quot;\nhttp://i1.someimage.com/xyIadUh.png&quot; rel=&quot;nofollow&quot; target=&quot;_NEW&quot;&gt;\nhttp://i1.someimage.com/xyIadUh.png&lt;/a&gt;\n &lt;a href=&quot;\nhttp://i1.someimage.com/7YFmZfs.png&quot; rel=&quot;nofollow&quot; target=&quot;_NEW&quot;&gt;\nhttp://i1.someimage.com/7YFmZfs.png&lt;/a&gt;\n &lt;a href=&quot;\nhttp://i1.someimage.com/cy53JfS.png&quot; rel=&quot;nofollow&quot; target=&quot;_NEW&quot;&gt;\nhttp://i1.someimage.com/cy53JfS.png&lt;/a&gt;\n &lt;a href=&quot;\nhttp://i1.someimage.com/LpWkz1l.png&quot; rel=&quot;nofollow&quot; target=&quot;_NEW&quot;&gt;\nhttp://i1.someimage.com/LpWkz1l.png&lt;/a&gt;\n &lt;a href=&quot;\nhttp://i1.someimage.com/l43JsCJ.png&quot; rel=&quot;nofollow&quot; target=&quot;_NEW&quot;&gt;\nhttp://i1.someimage.com/l43JsCJ.png&lt;/a&gt;\n &lt;a href=&quot;\nhttp://i1.someimage.com/0rY3QUW.png&quot; rel=&quot;nofollow&quot; target=&quot;_NEW&quot;&gt;\nhttp://i1.someimage.com/0rY3QUW.png&lt;/a&gt;\n &lt;a href=&quot;\nhttp://i1.someimage.com/wmRubmG.png&quot; rel=&quot;nofollow&quot; target=&quot;_NEW&quot;&gt;\nhttp://i1.someimage.com/wmRubmG.png&lt;/a&gt;\n\n\n\nJoin us of facebook\n\n\nP-Torrents      \n\n\n\n\n\n\nLokioddin       \n\n\n\n\n\nSujaidr Torrents\n\n\n\n\n\n\n\nPlease seed my torrent as much as you can for long live of the Torrent\n\nSharing is caring....\n\n\nThanks\t\t\t\t","torrent":{"xt":"urn:btih:20fe9d993a7be609459c95e6d8614057bedc0ad5","amp;dn":"Star+Trek+Into+Darkness%282013%29+720p%28Hindi-English%29By+Lokioddin%28Pi","amp;tr":["udp%3A%2F%2Ftracker.openbittorrent.com%3A80","udp%3A%2F%2Fopen.demonii.com%3A1337","udp%3A%2F%2Ftracker.coppersurfer.tk%3A6969","udp%3A%2F%2Fexodus.desync.com%3A6969"],"infoHash":"20fe9d993a7be609459c95e6d8614057bedc0ad5","infoHashBuffer":{"type":"Buffer","data":[32,254,157,153,58,123,230,9,69,156,149,230,216,97,64,87,190,220,10,213]},"announce":[],"urlList":[]}}